<?xml version="1.0" encoding="UTF-8"?>
<svg xmlns="http://www.w3.org/2000/svg" xmlns:xlink="http://www.w3.org/1999/xlink" width="512" height="512" viewBox="0 0 56 55" version="1.1"><!-- Generator: Sketch 51.3 (57544) - http://www.bohemiancoding.com/sketch --><title>014 - Gold Ingots</title><desc>Created with Sketch.</desc><defs/><g id="Page-1" stroke="none" stroke-width="1" fill="none" fill-rule="evenodd"><g id="014---Gold-Ingots" fill="#000000" fill-rule="nonzero"><polygon id="Shape" points="6.972 26.483 7.527 25.008 5.168 25.76"/><polygon id="Shape" points="50.167 28.641 48.149 27.885 25.918 34.26 28.18 35.179"/><polygon id="Shape" points="46.907 26.16 43.849 17.122 20.571 23.159 23.521 32.866"/><path d="M15.5,19.947 L16.359,20.269 C16.386,20.276 16.413,20.285 16.439,20.294 L19.376,21.404 L40.576,15.904 L34.288,14.223 L17.5,18.542 C17.4896942,19.0641912 17.1136062,19.5071393 16.6,19.602 C16.2211008,19.673577 15.8519095,19.7893688 15.5,19.947 Z" id="Shape"/><path d="M12.556,23.637 C12.4653001,24.1614883 12.0102729,24.5445811 11.478,24.5445811 C10.9457271,24.5445811 10.4906999,24.1614883 10.4,23.637 C10.379,23.518 10.34,23.405 10.31,23.288 L8.822,27.249 L11.254,28.292 L17.642,30.9 L21.277,32.377 L18.5,23.212 L15.8,22.191 C15.775,22.184 15.75,22.175 15.726,22.167 L15.698,22.156 L15.688,22.156 L13.618,21.381 C13.075386,22.0288417 12.7095408,22.8060042 12.556,23.637 Z" id="Shape"/><path d="M27.272,36.969 L25.432,36.221 C25.4047342,36.2171135 25.3776957,36.2117725 25.351,36.205 L17.845,33.141 L15.24,40.088 L29.434,46.288 L27.272,36.969 Z" id="Shape"/><path d="M11.475,16.131 C10.8834764,17.1096718 10.0629192,17.9298859 9.084,18.521 C9.57425231,18.8176287 10.0260033,19.1736555 10.429,19.581 C10.58,19.73 10.715,19.892 10.85,20.053 C10.869,20.07 10.882,20.09 10.899,20.108 C11.1114449,20.3602744 11.3052881,20.6276443 11.479,20.908 C11.7740492,20.4195595 12.1287789,19.9697649 12.535,19.569 C12.55,19.554 12.567,19.541 12.582,19.526 C12.597,19.511 12.62,19.493 12.639,19.475 C13.0106074,19.1106269 13.4226099,18.7898823 13.867,18.519 C12.8918294,17.9214854 12.072107,17.1014203 11.475,16.126 L11.475,16.131 Z" id="Shape"/><polygon id="Shape" points="10.021 29.938 7.19 28.724 7.182 28.722 2.789 26.961 0.272 33.671 12.465 38.893"/><polygon id="Shape" points="15.992 32.385 12.357 30.901 14.122 37.37"/><polygon id="Shape" points="52.679 29.98 29.316 36.928 31.585 46.71 55.724 38.811"/><path d="M47,46 C47,45.4477153 46.5522847,45 46,45 C45.4477153,45 45,45.4477153 45,46 L45,48 C45,48.5522847 45.4477153,49 46,49 C46.5522847,49 47,48.5522847 47,48 L47,46 Z" id="Shape"/><path d="M44,49 L42,49 C41.4477153,49 41,49.4477153 41,50 C41,50.5522847 41.4477153,51 42,51 L44,51 C44.5522847,51 45,50.5522847 45,50 C45,49.4477153 44.5522847,49 44,49 Z" id="Shape"/><path d="M46,55 C46.5522847,55 47,54.5522847 47,54 L47,52 C47,51.4477153 46.5522847,51 46,51 C45.4477153,51 45,51.4477153 45,52 L45,54 C45,54.5522847 45.4477153,55 46,55 Z" id="Shape"/><path d="M48,51 L50,51 C50.5522847,51 51,50.5522847 51,50 C51,49.4477153 50.5522847,49 50,49 L48,49 C47.4477153,49 47,49.4477153 47,50 C47,50.5522847 47.4477153,51 48,51 Z" id="Shape"/><path d="M22,0 C21.4477153,0 21,0.44771525 21,1 L21,3 C21,3.55228475 21.4477153,4 22,4 C22.5522847,4 23,3.55228475 23,3 L23,1 C23,0.44771525 22.5522847,0 22,0 Z" id="Shape"/><path d="M20,4 L18,4 C17.4477153,4 17,4.44771525 17,5 C17,5.55228475 17.4477153,6 18,6 L20,6 C20.5522847,6 21,5.55228475 21,5 C21,4.44771525 20.5522847,4 20,4 Z" id="Shape"/><path d="M21,9 C21,9.55228475 21.4477153,10 22,10 C22.5522847,10 23,9.55228475 23,9 L23,7 C23,6.44771525 22.5522847,6 22,6 C21.4477153,6 21,6.44771525 21,7 L21,9 Z" id="Shape"/><path d="M24,6 L26,6 C26.5522847,6 27,5.55228475 27,5 C27,4.44771525 26.5522847,4 26,4 L24,4 C23.4477153,4 23,4.44771525 23,5 C23,5.55228475 23.4477153,6 24,6 Z" id="Shape"/><path d="M15.536,46.464 C15.1455001,46.0736181 14.5124999,46.0736181 14.122,46.464 L12.707,47.879 C12.4470434,48.1300745 12.3427874,48.5018779 12.4343028,48.8515073 C12.5258183,49.2011368 12.7988632,49.4741817 13.1484927,49.5656972 C13.4981221,49.6572126 13.8699255,49.5529566 14.121,49.293 L15.536,47.878 C15.9263819,47.4875001 15.9263819,46.8544999 15.536,46.464 Z" id="Shape"/><path d="M11.293,47.879 L9.878,46.464 C9.62692553,46.2040434 9.25512211,46.0997874 8.90549268,46.1913028 C8.55586324,46.2828183 8.28281828,46.5558632 8.19130284,46.9054927 C8.0997874,47.2551221 8.20404342,47.6269255 8.464,47.878 L9.879,49.293 C10.2713789,49.6719722 10.8950848,49.6665524 11.2808186,49.2808186 C11.6665524,48.8950848 11.6719722,48.2713789 11.293,47.879 Z" id="Shape"/><path d="M9.879,50.707 L8.464,52.122 C8.20404342,52.3730745 8.0997874,52.7448779 8.19130284,53.0945073 C8.28281828,53.4441368 8.55586324,53.7171817 8.90549268,53.8086972 C9.25512211,53.9002126 9.62692553,53.7959566 9.878,53.536 L11.293,52.121 C11.6719722,51.7286211 11.6665524,51.1049152 11.2808186,50.7191814 C10.8950848,50.3334476 10.2713789,50.3280278 9.879,50.707 Z" id="Shape"/><path d="M14.121,50.707 C13.7286211,50.3280278 13.1049152,50.3334476 12.7191814,50.7191814 C12.3334476,51.1049152 12.3280278,51.7286211 12.707,52.121 L14.122,53.536 C14.5143789,53.9149722 15.1380848,53.9095524 15.5238186,53.5238186 C15.9095524,53.1380848 15.9149722,52.5143789 15.536,52.122 L14.121,50.707 Z" id="Shape"/><path d="M52,11 C52,10.4477153 51.5522847,10 51,10 C50.4477153,10 50,10.4477153 50,11 L50,12 C50,12.5522847 50.4477153,13 51,13 C51.5522847,13 52,12.5522847 52,12 L52,11 Z" id="Shape"/><path d="M51,18 C51.5522847,18 52,17.5522847 52,17 L52,16 C52,15.4477153 51.5522847,15 51,15 C50.4477153,15 50,15.4477153 50,16 L50,17 C50,17.5522847 50.4477153,18 51,18 Z" id="Shape"/><path d="M53,15 L54,15 C54.5522847,15 55,14.5522847 55,14 C55,13.4477153 54.5522847,13 54,13 L53,13 C52.4477153,13 52,13.4477153 52,14 C52,14.5522847 52.4477153,15 53,15 Z" id="Shape"/><path d="M49,15 C49.5522847,15 50,14.5522847 50,14 C50,13.4477153 49.5522847,13 49,13 L48,13 C47.4477153,13 47,13.4477153 47,14 C47,14.5522847 47.4477153,15 48,15 L49,15 Z" id="Shape"/></g></g></svg>
